<svg xmlns="http://www.w3.org/2000/svg" xmlns:xlink="http://www.w3.org/1999/xlink" width="50" zoomAndPan="magnify" viewBox="0 0 37.5 37.499999" height="50" preserveAspectRatio="xMidYMid meet" version="1.0"><defs><clipPath id="6a6663457f"><path d="M 2.171875 3.894531 L 34.738281 3.894531 L 34.738281 32.761719 L 2.171875 32.761719 Z M 2.171875 3.894531 " clip-rule="nonzero"/></clipPath></defs><g clip-path="url(#6a6663457f)"><path fill="#00bf15" d="M 31.289062 18.335938 C 31.289062 26.300781 24.769531 32.757812 16.730469 32.757812 C 8.691406 32.757812 2.171875 26.292969 2.171875 18.335938 C 2.171875 10.375 8.691406 3.910156 16.730469 3.910156 C 18.6875 3.910156 20.570312 4.285156 22.375 5.035156 C 24.179688 5.789062 25.765625 6.859375 27.132812 8.246094 L 24.960938 10.398438 C 23.890625 9.304688 22.648438 8.457031 21.230469 7.863281 C 19.816406 7.265625 18.339844 6.960938 16.800781 6.953125 C 10.492188 6.917969 5.292969 11.996094 5.246094 18.25 C 5.242188 18.652344 5.261719 19.054688 5.300781 19.457031 C 5.339844 19.855469 5.402344 20.253906 5.488281 20.648438 C 5.570312 21.042969 5.675781 21.433594 5.800781 21.816406 C 5.921875 22.203125 6.070312 22.578125 6.234375 22.945312 C 6.398438 23.316406 6.582031 23.671875 6.789062 24.023438 C 6.992188 24.371094 7.214844 24.710938 7.453125 25.035156 C 7.691406 25.359375 7.949219 25.671875 8.222656 25.972656 C 8.496094 26.269531 8.785156 26.554688 9.089844 26.820312 C 9.394531 27.089844 9.710938 27.34375 10.042969 27.578125 C 10.371094 27.8125 10.714844 28.027344 11.070312 28.226562 C 11.421875 28.425781 11.785156 28.605469 12.160156 28.765625 C 12.535156 28.925781 12.914062 29.066406 13.304688 29.1875 C 13.691406 29.308594 14.085938 29.40625 14.484375 29.484375 C 14.882812 29.566406 15.285156 29.621094 15.691406 29.660156 C 16.097656 29.695312 16.503906 29.710938 16.910156 29.703125 C 17.316406 29.699219 17.722656 29.671875 18.125 29.621094 C 18.53125 29.574219 18.929688 29.503906 19.328125 29.410156 C 19.722656 29.320312 20.113281 29.207031 20.496094 29.074219 C 20.882812 28.945312 21.257812 28.792969 21.625 28.621094 C 21.996094 28.449219 22.351562 28.257812 22.699219 28.046875 C 23.046875 27.835938 23.382812 27.609375 23.707031 27.363281 C 24.03125 27.121094 24.339844 26.859375 24.632812 26.582031 C 24.929688 26.304688 25.210938 26.011719 25.472656 25.703125 C 25.738281 25.398438 25.984375 25.078125 26.214844 24.746094 C 26.441406 24.410156 26.652344 24.066406 26.847656 23.710938 C 27.039062 23.355469 27.210938 22.992188 27.367188 22.617188 C 27.519531 22.246094 27.652344 21.863281 27.765625 21.476562 C 27.878906 21.089844 27.96875 20.699219 28.039062 20.300781 C 28.109375 19.902344 28.160156 19.503906 28.1875 19.101562 C 28.214844 18.699219 28.222656 18.296875 28.207031 17.894531 C 28.191406 17.492188 28.15625 17.089844 28.097656 16.691406 C 28.039062 16.289062 27.957031 15.894531 27.855469 15.503906 L 30.292969 13.089844 C 30.957031 14.777344 31.289062 16.523438 31.289062 18.335938 Z M 17.453125 18.867188 L 13.96875 15.414062 C 13.769531 15.214844 13.550781 15.039062 13.316406 14.882812 C 13.078125 14.726562 12.828125 14.59375 12.566406 14.484375 C 12.304688 14.378906 12.035156 14.296875 11.757812 14.242188 C 11.476562 14.1875 11.195312 14.160156 10.914062 14.160156 C 10.628906 14.160156 10.347656 14.1875 10.070312 14.242188 C 9.789062 14.296875 9.519531 14.378906 9.257812 14.484375 C 8.996094 14.59375 8.746094 14.726562 8.511719 14.882812 C 8.273438 15.039062 8.054688 15.214844 7.855469 15.414062 L 14.394531 21.898438 L 16.78125 24.261719 C 16.96875 24.445312 17.191406 24.539062 17.453125 24.539062 C 17.714844 24.539062 17.9375 24.445312 18.125 24.261719 L 20.511719 21.898438 L 34.738281 7.796875 C 34.539062 7.597656 34.320312 7.421875 34.085938 7.265625 C 33.847656 7.109375 33.597656 6.976562 33.335938 6.867188 C 33.074219 6.761719 32.804688 6.679688 32.527344 6.625 C 32.246094 6.570312 31.964844 6.542969 31.683594 6.542969 C 31.398438 6.542969 31.117188 6.570312 30.839844 6.625 C 30.558594 6.679688 30.289062 6.761719 30.027344 6.867188 C 29.765625 6.976562 29.515625 7.109375 29.28125 7.265625 C 29.042969 7.421875 28.824219 7.597656 28.625 7.796875 Z M 17.453125 18.867188 " fill-opacity="1" fill-rule="nonzero"/></g></svg>